<?xml version="1.0" encoding="UTF-8" standalone="no"?>
<!-- Generator: Adobe Illustrator 16.0.0, SVG Export Plug-In . SVG Version: 6.00 Build 0)  -->

<svg
   xmlns:dc="http://purl.org/dc/elements/1.1/"
   xmlns:cc="http://creativecommons.org/ns#"
   xmlns:rdf="http://www.w3.org/1999/02/22-rdf-syntax-ns#"
   xmlns:svg="http://www.w3.org/2000/svg"
   xmlns="http://www.w3.org/2000/svg"
   xmlns:sodipodi="http://sodipodi.sourceforge.net/DTD/sodipodi-0.dtd"
   xmlns:inkscape="http://www.inkscape.org/namespaces/inkscape"
   version="1.1"
   id="Capa_1"
   x="0px"
   y="0px"
   width="512px"
   height="512px"
   viewBox="0 0 512 512"
   enable-background="new 0 0 512 512"
   xml:space="preserve"
   inkscape:version="0.48.4 r9939"
   sodipodi:docname="icons8-data-backup-24.svg"><metadata
     id="metadata13"><rdf:RDF><cc:Work
         rdf:about=""><dc:format>image/svg+xml</dc:format><dc:type
           rdf:resource="http://purl.org/dc/dcmitype/StillImage" /></cc:Work></rdf:RDF></metadata><defs
     id="defs11" /><sodipodi:namedview
     pagecolor="#ffffff"
     bordercolor="#666666"
     borderopacity="1"
     objecttolerance="10"
     gridtolerance="10"
     guidetolerance="10"
     inkscape:pageopacity="0"
     inkscape:pageshadow="2"
     inkscape:window-width="1168"
     inkscape:window-height="760"
     id="namedview9"
     showgrid="false"
     inkscape:zoom="0.4609375"
     inkscape:cx="256"
     inkscape:cy="256"
     inkscape:window-x="2638"
     inkscape:window-y="240"
     inkscape:window-maximized="0"
     inkscape:current-layer="Capa_1" /><g
     id="g3"><path
       d="M336.319,383.828v-20.271h58.715c2.403,0,4.354-1.949,4.354-4.354v-42.03c0-2.406-1.951-4.354-4.354-4.354h-58.715V292.54   c0-1.763-1.06-3.351-2.688-4.022c-1.627-0.674-3.5-0.301-4.745,0.942l-45.644,45.646c-0.817,0.818-1.274,1.927-1.274,3.08   c0,1.156,0.457,2.265,1.274,3.082l45.644,45.644c1.245,1.246,3.118,1.619,4.745,0.942   C335.26,387.178,336.319,385.592,336.319,383.828z"
       id="path5" /><path
       d="M437.611,251.031c-21.055-23.39-49.625-38.345-80.609-42.233c-1.065-2.063-2.75-5.075-3.217-5.886l-1.243-2.21   c4.803-7.346,7.231-14.976,7.231-22.706v-45.049c0-6.655-1.842-13.343-5.433-19.794l-0.382-0.74   c1.378-3.479,2.051-6.759,2.051-9.989c0-18.264-17.518-33.649-50.654-44.494c-28.225-9.236-66.5-14.534-105.018-14.534   c-38.524,0-76.809,5.298-105.029,14.535c-33.14,10.847-50.654,26.235-50.654,44.506c0,3.216,0.672,6.492,2.051,9.977l-0.355,0.665   c-3.613,6.55-5.444,13.235-5.444,19.869v45.049c0,7.769,2.43,15.387,7.229,22.672l-1.27,2.218   c-3.955,6.864-5.961,13.865-5.961,20.808v45.057c0,7.564,2.306,15.01,6.858,22.146l-0.897,1.557   c-3.955,6.863-5.961,13.855-5.961,20.777v45.086c0,20.595,16.714,39.564,47.063,53.419c29.609,13.517,69.519,20.959,112.37,20.959   c15.734,0,31.619-1.099,47.242-3.267c24.756,25.273,57.755,39.174,93.096,39.174c71.914,0,130.42-58.504,130.42-130.418   C471.096,305.969,459.204,275.016,437.611,251.031z M101.745,79.48c25.964-8.614,60.979-13.358,98.594-13.358   c37.6,0,72.61,4.747,98.589,13.366c23.715,7.869,34.328,17.197,34.328,22.95c0,5.772-10.613,15.123-34.33,22.998   c-25.966,8.622-60.978,13.37-98.587,13.37c-37.618,0-72.634-4.748-98.593-13.37c-23.706-7.873-34.315-17.225-34.315-22.998   C67.43,96.678,78.039,87.345,101.745,79.48z M63.664,146.543c25.852,17.886,78.278,29.229,136.675,29.229   c58.354,0,110.794-11.347,136.696-29.238v31.482c0,11.605-13.886,24.415-37.146,34.264c-26.483,11.216-61.838,17.394-99.552,17.394   c-37.71,0-73.061-6.178-99.54-17.393c-23.253-9.849-37.135-22.658-37.135-34.265L63.664,146.543L63.664,146.543z M200.338,409.913   c-37.7,0-73.053-6.174-99.541-17.386c-23.252-9.84-37.134-22.631-37.134-34.211v-35.94c27.988,21.765,79.421,35.091,136.675,35.091   c3.862,0,7.634-0.185,11.293-0.383c2.663,18.215,9.263,35.825,19.231,51.372C220.714,409.424,210.471,409.913,200.338,409.913z    M211.538,319.954c-3.623,0.218-7.355,0.421-11.2,0.421c-37.705,0-73.057-6.175-99.54-17.389   c-23.252-9.846-37.135-22.645-37.135-34.236v-35.963c27.93,21.775,79.359,35.111,136.675,35.111   c10.018,0,20.409-0.534,31.598-1.627C221.23,282.42,214.234,300.811,211.538,319.954z M340.676,436.741   c-54.343,0-98.554-44.213-98.554-98.556c0-54.342,44.211-98.552,98.554-98.552c54.346,0,98.557,44.21,98.557,98.552   C439.232,392.528,395.021,436.741,340.676,436.741z"
       id="path7" /></g><path
     style="fill:#ffffff"
     d="m 318.91525,465.67031 c -18.30942,-3.46754 -40.4122,-13.30653 -55.65893,-24.77641 l -15.21784,-11.44817 -35.96951,0.98432 c -53.85705,1.47382 -90.71574,-5.04084 -126.63639,-22.38258 -24.966808,-12.05344 -38.273896,-25.66752 -42.189061,-43.16232 -3.202171,-14.30881 -1.65559,-58.50908 2.341,-66.90423 2.362202,-4.962 2.32523,-7.51525 -0.219907,-15.18644 -4.744948,-14.30155 -4.185872,-65.64236 0.815065,-74.84872 3.623658,-6.67088 3.630345,-7.43081 0.124092,-14.10169 -4.799321,-9.13104 -6.655104,-52.51049 -2.853949,-66.71187 1.437204,-5.36949 2.781662,-15.25776 2.987684,-21.97393 C 47.082553,84.130163 60.455402,71.909309 96.216708,59.667263 127.013,49.124872 150.28958,46.026461 199.59322,45.906526 c 45.84831,-0.111529 62.61309,1.696772 93.27781,10.061239 30.4238,8.298753 51.25762,20.038568 57.71247,32.520854 3.73473,7.222205 4.95934,19.053961 6.54553,63.241101 0.9437,26.28868 0.52558,33.76524 -2.28053,40.77836 -2.49845,6.24426 -2.83095,9.71833 -1.21845,12.73129 2.03188,3.7966 14.05271,8.63116 21.53355,8.6604 1.70268,0.007 11.16787,3.9192 21.03374,8.69456 87.65691,42.42839 98.93146,161.54597 20.74628,219.18849 -26.9463,19.86634 -67.31685,29.70381 -98.02837,23.88749 z m 46.22471,-31.53698 c 18.77437,-4.8901 32.73292,-12.87815 45.92219,-26.27984 38.30942,-38.9264 38.07729,-100.94592 -0.52233,-139.54553 -19.9714,-19.97141 -41.56678,-28.89448 -69.92965,-28.89448 -28.36287,0 -49.95825,8.92307 -69.92965,28.89448 -53.90295,53.90295 -29.22372,145.87053 44.46969,165.71707 15.03922,4.05024 34.69217,4.09281 49.98975,0.10825 l 0,5e-5 z m -144.50867,-24.18996 11.27536,-1.35453 -6.41767,-12.71335 c -3.52972,-6.99233 -7.8565,-18.23733 -9.61506,-24.98892 -1.75856,-6.75156 -3.45638,-12.49206 -3.77294,-12.75665 -0.31655,-0.26459 -15.28355,-1.56728 -33.25998,-2.89486 -39.99546,-2.9537 -69.12206,-9.91174 -94.230831,-22.51075 -10.142372,-5.08922 -19.172881,-9.57855 -20.067796,-9.97628 -0.894915,-0.39775 -1.627119,9.046 -1.627119,20.98608 0,20.04113 0.420372,22.20884 5.470774,28.21089 15.30168,18.18503 52.530772,32.30239 97.580072,37.00261 22.5328,2.35095 40.63869,2.68076 54.66519,0.99576 z m -8.53031,-90.73621 c 0.31656,-0.27659 2.07371,-6.26426 3.90478,-13.30588 1.83107,-7.04163 6.20936,-18.57248 9.72953,-25.62406 3.52017,-7.05161 6.4003,-13.02528 6.4003,-13.27484 0,-0.24956 -18.30508,-1.00011 -40.67796,-1.66793 -29.36857,-0.8766 -45.86926,-2.41846 -59.35014,-5.54578 -22.9674,-5.32799 -47.920384,-14.85389 -59.44353,-22.69279 L 64,231.20201 63.376614,252.0483 c -0.505045,16.8889 0.112727,22.1059 3.254237,27.48151 11.454035,19.59959 57.273579,36.8323 107.716129,40.51195 20.53312,1.49782 35.46239,1.1678 37.754,-0.8346 l 0,0 z m 16.76463,-90.20449 c 52.40189,-4.96913 93.14445,-20.47529 105.24554,-40.05527 3.39712,-5.49666 4.32953,-10.8047 4.32953,-24.64754 0,-9.70323 -0.87609,-17.64223 -1.94686,-17.64223 -1.07075,0 -7.85699,2.93233 -15.0805,6.51629 -42.40946,21.04153 -138.69916,27.26101 -202.57564,13.08463 -15.97023,-3.54434 -25.128993,-6.79689 -53.210561,-18.89666 -2.056077,-0.88592 -2.711865,3.59106 -2.711865,18.51356 0,18.92744 0.258523,19.97649 6.742975,27.36187 14.427937,16.43251 55.953321,31.56201 97.406131,35.48926 29.35773,2.78137 35.11079,2.80707 61.80125,0.27609 z m 10.09096,-91.12336 c 59.72067,-6.03353 100.8275,-23.66865 93.36226,-40.053062 C 329.57036,91.794015 310.73083,81.64234 292.88136,76.575375 236.27393,60.50612 144.40361,62.466736 95.585152,80.785896 61.074475,93.736055 58.299372,107.76922 87.679104,120.76527 c 20.635936,9.12826 37.957706,12.90008 82.625976,17.99186 14.67892,1.67326 47.56246,1.25279 68.65149,-0.87782 l 0,0 z"
     id="path2990"
     inkscape:connector-curvature="0" /><path
     style="fill:#ffffff"
     d="m 307.48843,364.11372 c -12.80677,-12.8466 -23.28504,-24.33443 -23.28504,-25.52852 0,-3.93524 47.17479,-49.33961 49.66465,-47.80079 1.32173,0.81687 2.40315,6.30896 2.40315,12.20464 l 0,10.71942 30.33154,0 c 35.46431,0 33.18744,-1.99804 32.13908,28.20339 l -0.64012,18.44068 -30.91525,0.60194 -30.91525,0.60194 0,9.52571 c 0,9.90896 -1.60756,16.38906 -4.06572,16.38906 -0.78761,0 -11.91028,-10.51086 -24.71704,-23.35747 z"
     id="path2992"
     inkscape:connector-curvature="0" /></svg>